<?xml version="1.0" encoding="utf-8"?>
<!-- Generator: Adobe Illustrator 26.0.0, SVG Export Plug-In . SVG Version: 6.00 Build 0)  -->
<svg version="1.1" id="Capa_1" xmlns="http://www.w3.org/2000/svg" xmlns:xlink="http://www.w3.org/1999/xlink" x="0px" y="0px"
	 viewBox="0 0 595.3 841.9" style="enable-background:new 0 0 595.3 841.9;" xml:space="preserve">
<style type="text/css">
	.st0{fill:#FFFFFF;}
</style>
<path class="st0" d="M491.7,439.3c-0.3-0.9-0.7-1.7-1-2.5c-0.7-2.2-2-4-3.7-5.4c-4.5-3.5-9-7.1-13.7-10.5
	c-5.3-3.8-11.5-5.6-17.9-6.5c-13-1.8-25.2,1-36.7,7c-7.7,4.1-15.1,8.6-22.2,13.7c-6.4,4.5-12.9,8.9-19.4,13.2
	c-1.5,1-2.7,2.2-3.8,3.6c-6.6,8.8-13.4,17.6-20.1,26.4c-5.6,7.3-11.2,14.6-16.9,21.9c-1.2,1.6-2.6,3-4.1,4.3
	c-2.2,1.9-4.2,1.9-6.7,0.4c-0.6-0.4-1.1-0.8-1.6-1.1c-1.2-0.8-2.5-1.2-4-1c-1.8,0.2-3.5,0.4-5.3,0.7c-0.2,0-0.4,0.1-0.9,0.4
	c0.1,1.8,0.2,3.7,0.3,5.6c0.1,3.2,0.3,6.3,0.4,9.5c0.1,2.4-0.3,4.7-1.5,6.8c-0.6,1.1-0.6,2.1,0.4,3c2.1,1.8,2.6,4.2,2.8,6.8
	c0.1,1.7,0.1,3.4,0.1,5.1c0.1,7.3,0.2,14.6,0.4,21.9c0,0.6,0.1,1.3,0.6,2.1c0.4-0.6,0.9-1.2,1.3-1.9c8.9-13.9,19.7-26.1,32.4-36.6
	c6.7-5.5,13.9-10.2,21.2-14.8c10.3-6.4,21-12,32.1-16.9c7.6-3.4,15.1-7,22.6-10.6c5.2-2.5,9.7-6.1,13.8-10.2
	c1.2-1.2,2.4-2.5,4.2-2.7c0.6-0.1,1.4-0.1,1.8,0.2c0.8,0.5,0.4,1.3,0.1,2c-0.6,1.4-1.1,2.7-1.7,4.1c-1.5,3.6-3,7.2-4.3,10.9
	c-0.8,2.3-1.5,4.6-2,7c-1.2,4.9-2.4,9.9-3.4,14.9c-1.3,6.8-1.1,13.7-0.6,20.5c0.6,8.1,1.2,16.2,2.2,24.2c1,8.8,2.4,17.5,3.7,26.3
	c0.1,0.4,0.2,0.9,0.2,1.3c0.1,1.6-0.5,2.4-2,3.1c-0.7,0.3-1.4,0.5-2,0.9c-1.5,1-1.4,2.7,0.2,3.5c0.3,0.2,0.7,0.2,1,0.3
	c1.6,0.3,2.6,1.3,2.9,2.9c1.1,5,2,10,2.3,15.1c0.7,12.3,0.6,24.6,0.3,36.9c-0.2,9.4-0.9,18.7-2.3,28c-1.8,11.1-5.7,21.5-10.2,31.7
	c-1.8,4-3.7,7.9-5.5,11.8c-5.7,12.3-13.9,22.9-22.8,33c-6.5,7.3-13.8,13.9-21.7,19.8c-5.8,4.3-11.5,8.5-17.6,12.2
	c-0.6,0.3-1.1,0.7-1.6,1.1c-3.9,3.3-8.3,5.8-12.8,8.2c-1.5,0.8-2.8,1.8-4.2,2.8c-1.2,0.8-1.9,2-2.3,3.4c-0.3,1.4-0.9,1.8-2.2,1.4
	c-1.7-0.5-3.4-1-4.9-2c-2.2-1.5-4.3-1.8-6.8-1c-9.8,3.2-19.9,3.9-30.1,3.5c-2.4-0.1-4.7-0.4-7-0.5c-2.9-0.1-5.9-0.3-8.8-0.1
	c-3.1,0.2-5.6-0.4-7.5-3.1c-2.1-2.9-4.9-4.7-8.6-4.6c-6.5,0.2-12.8-0.9-19.1-1.8c-14.3-2-27.8-6.7-40.5-13.5
	c-9.5-5.1-17.6-12.1-25.5-19.3c-4.9-4.5-9.1-9.6-13-15c-1.8-2.5-3-5.2-3.9-8.1c-0.6-2-2.1-3.8-3.2-5.7c-0.5-0.9-1.4-1.6-1.8-2.5
	c-2-4.8-3.9-9.7-5.7-14.6c-1.9-5.4-2.5-11.1-2.8-16.7c-0.4-5.9-0.6-11.8-0.8-17.7c-0.2-6.4,0.5-12.8,1.5-19.2
	c1.4-9.2,3-18.3,5.7-27.2c1.8-5.8,4.2-11.3,7.1-16.6c1.5-2.7,2.6-5.5,3.3-8.6c0.4-1.9,1.4-3.7,2.4-5.4c4.9-8.2,11-15.5,17.6-22.4
	c7.9-8.1,16.5-15.2,27-19.7c0.9-0.4,1.3-1,1.3-2c-0.2-10.8-0.4-21.5-0.6-32.3c-0.1-5.7-0.4-11.3-0.5-17c0-1.5-0.4-2.6-1.8-3.5
	c-0.5,0.3-1.1,0.6-1.6,0.9c-9.8,6.2-18.1,13.9-25,23.1c-2,2.7-4,5.3-5.9,8c-3.7,5.2-6.6,10.8-9,16.7c-0.6,1.5-0.6,1.4-1.8,2
	c-0.8-0.8-0.4-1.6-0.1-2.4c1.5-3.7,2.8-7.5,4.5-11c7.4-15.4,16.9-29.3,29-41.5c0.4-0.4,0.8-0.9,1.3-1.4c-0.3-0.2-0.5-0.4-0.7-0.5
	c-1.9-0.6-2.1-0.6-2-2.5c0.1-2.8-1.5-4.7-3.8-5.7c-2.6-1.1-4.5-2.8-6.2-4.8c-7.3-8.2-13.7-17-19.2-26.4c-1.1-1.9-2.1-3.7-2.1-6
	c0-1.1-0.6-2-1.6-2.5s-1.6-1.3-2-2.2c-0.5-1.2-1.2-2.4-1.6-3.6c-5-13-8.2-26.4-10-40.2c-1.1-8.4-0.9-16.8-0.4-25.2
	c0.5-8.7,1.4-17.4,3.6-25.8c1.2-4.9,2.7-9.7,4.5-14.3c6.4-16.5,15.4-31.5,28.4-43.8c1.4-1.3,2.8-2.7,4.2-3.9
	c0.9-0.8,1.2-1.5,1.1-2.7c-1.2-13.2-2.9-26.4-5.7-39.4c-0.3-1.4-0.7-2.9-0.9-4.3c-0.6-3.1-1.6-6.1-3.4-8.8c-1.3-2-1.6-4.1-1-6.4
	c0.6-2.4,1.3-4.9,2.1-7.2c2.7-7.9,4.1-16,5.1-24.2c0.2-1.4-0.4-2.3-1.5-3.1c-9.2-7.2-19-13.7-29.3-19.3c-5.5-3-11.1-5.8-16.7-8.6
	c-0.8-0.4-1.6-0.9-2.5-1.5c1.2-0.8,1.8-0.2,2.5,0.1c8.3,3.7,16.2,8,24.1,12.6c7.2,4.3,14.4,8.6,21.6,12.9c0.6,0.3,1.1,0.6,1.9,1
	c0.1-0.7,0.3-1.1,0.3-1.6c0.3-7.1,0.2-14.1-0.6-21.2c-0.4-3.4-0.7-6.8-0.9-10.1c-0.3-5.9-1.8-11.5-3-17.2
	c-1.1-5.2-2.1-10.4-2.7-15.7c-0.4-3.1,0.1-6.3,0.3-9.5c0.1-2,0.2-4,0.4-5.9c0.1-0.9,0.2-1.8,0.2-2.6c0-0.8,0.1-1.7-0.3-2.3
	c-0.7-1.5-0.4-2.7,0.7-3.8c0.7-0.7,1.4-1.3,2.2-1.8c1.2-0.8,2.4-1.5,3.7-2c4.3-1.8,7.6-4.9,11.1-7.9c-3.8-2.4-8.1-3.2-12.5-3.6
	c-8.6-0.8-16.9,0-25.1,2.6c-6.2,1.9-11.9,4.8-17.1,8.7c-6.7,5.1-11.5,11.6-13.6,19.9c-0.7,2.7-0.9,5.3,0.1,8
	c1.2,3.1,3.6,4.9,6.3,6.5c0.6,0.4,1.6,0.5,1.7,1.7c-0.5,0-0.9,0.2-1.2,0.1c-3.1-1-5.7-2.6-7.7-5.2c-4.4-5.7-5.5-12.2-4.5-19
	c1.4-8.9,5.2-16.8,11.2-23.6c9.1-10.3,20.5-16.9,33.1-21.8c7.7-3,15.7-5.1,24-5.8c8.6-0.8,17.2-0.4,25.7,1.2
	c5.2,1,10.5,1.6,15.8,2.2c7,0.8,14.1,1.5,21.1,2.1c11.2,0.8,22.4,0.7,33.6-0.5c13-1.3,25.9-3,38.9-4.5c9.8-1.1,19.6-2.1,29.5-1.9
	c2.6,0,5.3,0.4,7.9,0.7c2,0.2,3.6,1.1,5.2,2.3c0.9,0.7,1.9,1.3,2.9,1.9c2.6,1.7,5.3,3.2,7.8,5.1c5.5,4,10.2,8.9,14.3,14.3
	c5,6.5,7.7,14,8.7,22.2c0.2,2.2,0.4,4.4,0.4,6.6c0,1.1-0.2,2.1-0.6,3.2c-0.3-2.7-0.6-5.5-1-8.2c-1.8-11.4-7.5-20.4-17-26.8
	c-2.5-1.7-5-3.4-7.7-4.8c-2.5-1.3-5.2-2.1-7.8-3.1c-1.1-0.4-1.9-0.1-2.7,0.8c-2,2.4-4.2,4.8-6.2,7.2c-4.1,4.9-6.7,10.5-8.1,16.7
	c-2,8.9-3,17.9-3.6,26.9c-0.3,4.6-0.4,9.3,0.3,13.9c0.6,3.9,1.9,7.5,4.1,10.9c1.7,2.7,3.2,5.6,4.7,8.5c0.7,1.4,1,3.1,1.4,4.6
	c0.2,0.8,0.2,1.8,0,2.6c-0.2,1.2-1.5,1.6-2.4,0.7c-0.4-0.4-0.7-0.9-1-1.4c-0.5-0.7-1.1-1.5-2.1-1.3s-1.3,1.2-1.5,2
	c-0.3,1.4-0.6,2.9-0.7,4.4c-0.4,4.9,0.2,9.7,0.9,14.5c1,7.2,1.4,6.1-2.6,11.9c-0.3,0.4-0.5,0.9-0.9,1.5c1.7,0.3,3.1,0.7,4.6,0.9
	c8.3,1.1,15.7,4.6,22.7,8.8c8.1,4.8,15.6,10.3,22.1,17.2c8.9,9.6,14.9,20.8,17,33.9c0.1,0.4,0.1,0.7,0.1,1.1c0,1.9-1.4,2.6-3,1.7
	c-0.8-0.4-1.5-0.9-2.5-1.6c-0.3,1.1-0.6,1.9-0.6,2.8c-0.3,4-0.6,8.1-0.7,12.1c-0.2,8.2-0.3,16.5-0.4,24.8c0,3.3-0.4,6.4-2,9.4
	c-0.9,1.6-1.2,3.7-1.2,5.5c0,2.6,0.1,5.2,0.8,7.7c1.4,4.8,1.6,9.6,1.2,14.5c-1.2,15.5-3.8,30.9-7.6,46c-0.4,1.5-0.9,3-1.4,4.4
	c-0.7,2.2-2,4-3.7,5.7c-3.2,3.2-4.7,7.2-4.1,11.7c0.5,3.7-0.1,7-1.4,10.4c-0.4,1-0.7,2.1-1.1,3.3c0.8,0,1.3,0,1.8-0.1
	c10-1.6,19.9-3.3,29.9-4.7c10.6-1.5,21.3-2,31.9,0.1c4.4,0.9,8.7,2.3,12.7,4.3c4.1,2,7.3,5.2,10.2,8.7c2.5,2.9,4.9,5.9,7.3,8.8
	c2,2.3,3.4,4.8,3.3,8c0,0.3-0.1,0.5-0.1,0.8C492,439.3,491.8,439.3,491.7,439.3z M275.6,740.2c-0.3,0-0.5,0-0.8,0
	c-0.1-0.5-0.3-1-0.3-1.6c0.1-4,0.2-8,0.3-11.9c0.5-13.9,1.2-27.8,1.5-41.8c0.3-12.4,0.3-24.8,0.2-37.2c-0.2-21.7-0.5-43.3-0.8-65
	c-0.1-9.5-0.3-19-0.3-28.5c0-1.9-0.7-3.2-2.2-4.2c-3.9-2.6-7.6-5.5-11-8.8c-2.1-2-3.4-4.2-3.8-7c-0.6-4-1.4-8-2.2-12
	c-0.3-1.6-0.7-3.3-1.1-4.8c-2.1-0.2-4.1-0.1-5.9-0.5c-5.6-1.2-11.1-2.7-16.4-5.1c-3.2-1.4-6.4-2.8-9.5-4.1c-0.4-0.2-0.9-0.2-1.2-0.3
	c-1,15.8-2,31.5-3.1,47.2c0.2,0,0.4,0.1,0.5,0.1c0.6-0.2,1.3-0.4,1.9-0.6c7.2-2.5,14.6-4.1,22.2-4.6c9.6-0.5,19,0.2,27.9,4.4
	c1,0.5,1.3,1,1,1.8c-0.4,0.9-1.1,0.8-1.8,0.5c-0.3-0.1-0.5-0.3-0.8-0.4c-1.8-0.7-3.5-1.5-5.4-1.9c-2.5-0.6-5.1-0.9-7.6-1.1
	c-12.7-1.1-25,0.4-36.6,6.1c-1.2,0.6-1.9,1.3-2,2.8c-0.4,7.3-0.9,14.6-1.4,21.8c-0.3,3.8-0.6,7.6-0.9,11.4c-0.1,0-0.2,0-0.3,0
	c0-11.1,0-22.2,0-33.6c-4.1,2.2-7.6,4.8-10.8,7.8c-6.5,6.2-12.4,12.8-17.1,20.5c-3.8,6.3-7.4,12.7-10.8,19.3
	c-3.7,7.1-6.6,14.5-7.8,22.5c-1.8,12.1-2.2,24.2-1.5,36.4c0.9,14,3.8,27.6,8.6,40.8c2.2,6.1,5.1,11.7,9.2,16.7
	c6.1,7.3,13.1,13.8,20.8,19.4c9.1,6.6,18.9,11.7,29,16.4c6.4,3,13,5.1,20.1,5.9c2.5,0.3,5.1,0.5,7.4,1.4c6.1,2.4,12.3,3,18.7,2.5
	c12-0.9,23.9-2.7,35.4-6.1c7.2-2.1,14.2-4.9,20.6-9c7.5-4.8,14.5-10.3,20.9-16.6c8.6-8.4,16-17.7,20.1-29.3c2.5-7,5.3-13.9,5.5-21.5
	c0-0.5,0.1-1,0.2-1.5c1.1-4.7,1.2-9.5,1.2-14.3c0-5.2-0.2-10.3-0.7-15.5c-0.9-11.2-2.1-22.5-3.1-33.7c-0.5-5-0.9-10,0.5-15
	c0.6-2.3,1.5-4.6,2.3-6.9c0.2-0.7,0.8-1.4-0.1-2.4c-0.8,0.6-1.6,1.1-2.2,1.8c-0.8,0.9-1.5,2-2.2,3c-0.5,0.7-0.9,1.4-1.5,1.9
	c-1.3,1.2-2.8,0.7-3-1c-0.2-1.6-0.3-3.2-0.3-4.8c0.2-6.6,1.6-13,3.6-19.3c3.4-10.7,8.1-20.7,13.3-30.6c4.3-8.1,8.9-16.2,13.3-24.2
	c0.3-0.6,0.6-1.3,1-2.1c-0.6,0-1-0.1-1.3,0c-3.7,0.7-7.4,1.3-11,2.3c-6.8,1.7-13,4.9-19.1,8c-12.2,6-23.3,13.5-32.9,23.2
	c-8.4,8.5-15.8,17.9-22.3,28c-0.6,0.9-1.1,1.8-1,3.1c0.3,2.6,0.4,5.3,0.8,7.9c1.5,9.2,1.3,18.5,1.4,27.8c0,3.1-0.4,6.2-0.7,9.2
	c-0.1,0.9-0.2,2-0.9,3.1c-0.6-6.9-0.9-13.5-1.7-19.9c-0.8-6.5-2.2-12.9-5-19.4c-1.5,2.9-2.7,5.2-3.9,7.7c-8.9,18.7-13.3,38.5-15,59
	c0,0.6,0.1,1.3-1,1.7c-0.1-1-0.2-1.9-0.2-2.8c0.1-6.8,0.2-13.6,0.5-20.3c0.1-3.9,0.3-7.8,0.9-11.7c2.2-14.7,6.3-28.8,11.7-42.5
	c1.9-4.9,2-4.8-1.3-9c-0.2-0.2-0.4-0.5-0.5-0.7c-6.3-7.2-13.1-13.9-20.3-20.3c-0.4-0.3-0.8-0.5-1.5-0.9c-0.1,2-0.2,3.7-0.2,5.3
	c-0.4,24.8-0.8,49.7-1.2,74.5c-0.2,9.1-0.4,18.3-0.7,27.4c-0.3,8.5-0.8,16.9-1.1,25.4c-0.4,10.4-0.8,20.8-1.2,31.2
	c-0.2,5.8-0.6,11.6-0.9,17.4C275.9,738.8,275.7,739.5,275.6,740.2z M277.1,296.1c-0.2,0-0.3,0.1-0.5,0.1c0,0.9-0.2,1.7-0.1,2.5
	c0.1,7.4,0.1,14.9,0.4,22.3c0.5,12.9,1.1,25.8,1.8,38.6c0.5,8.7,1.2,17.4,1.6,26c0.3,5.8,0.3,11.6,0.3,17.5c0,3.3-0.1,6.6-0.2,9.9
	c0,2,0.5,3.8,1.6,5.4c1,1.3,1.6,2.8,1.7,4.5c0.1,3.2,0.3,6.3,0.3,9.5c0,1.2,0.4,2,1.4,2.8c3.2,2.3,6.2,5,8.7,8.1
	c0.2,0.2,0.5,0.3,0.7,0.5c0.5-0.2,0.9-0.4,1.3-0.5c8.5-4,16.4-9.1,23.9-14.7c4-3,7.4-6.6,10.1-10.7c1.6-2.3,4-3.5,6.4-4.6
	c0.6-0.2,1.6-0.2,2,0.2c0.4,0.4,0.4,1.3,0.4,2c-0.1,0.8-0.4,1.6-0.6,2.5c4,1,7.8,0.7,11.5,0.5c0.4,0,0.8-0.5,1-1
	c0.3-0.5,0.4-1.1,0.5-1.7c1.8-9,3.7-17.9,5.4-26.9c1.5-8.2,3.1-16.5,4.3-24.8c1.6-10.7,2.9-21.5,4.5-32.2c0.3-1.9,1-3.9,1.8-5.6
	c0.8-1.6,0.6-2.8-0.4-4.1c-0.4-0.5-0.7-0.9-1.1-1.3c-2.2-2.1-2.8-4.8-2.2-7.7c0.4-2.1,0.8-4.2,1.2-6.3c2.4-12.9,3.7-26,3.4-39.1
	c-0.3-12.3-2.3-24.3-6.6-35.9c-3-7.9-6.8-15.3-12.5-21.7c-0.5-0.5-1-0.9-1.6-1.6c-0.4,0.9-0.7,1.5-1,2.1
	c-4.8,11.4-8.5,23.1-11.3,35.1c-2.1,9.2-4.1,18.4-3,28c0,0.2,0,0.4,0,0.7c0,1.9-0.4,3.7-1.8,5.1c-0.9,0.9-0.9,1.8-0.3,2.8
	c0.2,0.4,0.4,0.8,0.6,1.1c1.2,2,1.2,4,0.3,6.1c-1.1,2.5-2.2,5.1-3,7.8c-1.2,4.3-2.2,8.7-2.9,13.2c-3,18.5-6.5,37-8.3,55.7
	c-0.7,7.7-1.7,15.4-1.5,23.1c0.2,7.8-0.7,15.6-1.3,23.4c-0.1,0.8,0,1.6-0.9,2.1c-1.1-0.7-0.7-1.8-0.7-2.6c0.2-6,0.2-11.9-1.1-17.8
	c-2.3-10.6-4.9-21.1-8-31.5c-6.7-22.3-14.7-44.2-25.1-65.1C277.8,297.5,277.5,296.8,277.1,296.1z M326.8,127.6
	c-0.8,0.3-1.7,0.6-2.5,1c-1.1,0.6-2.2,1.3-3.3,1.7c-2.5,1-4.1,0.3-4.5-2.4c-0.7-4.5-1.4-9-1.9-13.6c-0.4-3.9-0.5-7.9-1-11.9
	c-0.2-1.6,0.1-2.9,1.2-4.1c1.8-2,3.6-4.1,5.5-6c8.5-8.6,17.7-16.3,27.3-23.5c0.3-0.2,0.6-0.6,1.2-1.1c-0.9,0.1-1.4,0.1-1.9,0.2
	c-5.7,1.4-11.5,2.6-17.1,4.4c-9.7,3.3-19.2,7-28.8,10.6c-3.2,1.2-6.4,2.7-9.5,4.2c-0.6,0.3-1.2,0.8-1.7,1.3
	c-1.1,1.3-2.2,2.6-3.2,3.9c-0.5,0.6-1.1,1.2-1.4,2c-1.4,4.6-3,9.2-2.7,14c0.4,5.6-0.8,10.4-5.1,14.2c-1,0.8-1.2,2-0.9,3.2
	c0.2,0.9,0.4,1.8,0.8,2.5c1.8,3.1,2.1,6.4,1.9,9.8c-0.4,6.2-0.8,12.5-1.1,18.8c-0.4,6.8-0.8,13.7-1,20.5c-0.2,7.1-0.2,14.1-0.4,21.2
	c-0.2,8.5-0.5,16.9-0.7,25.4c-0.2,7.9-0.5,15.8-0.5,23.6c0,7.2,0.4,14.4,0.6,21.7c0,1.2,0.4,2.3,1,3.3c0.9,1.6,1.5,3.3,2.4,4.9
	c0.4,0.7,0.9,1.3,1.6,1.7c3.8,2.3,7.8,4.5,11.6,6.9c4,2.6,7.8,5.5,11,9.2c1.9,2.1,3.4,4.5,3.7,7.4c0.1,1,0.4,2.2-1,3.2
	c-0.3-0.8-0.6-1.6-0.8-2.3c-0.4-1.1-0.8-2.2-1.2-3.3c-0.9-2.1-2.5-3.7-4.2-5.1c-2.3-2-4.7-3.9-7.1-5.6c-2-1.5-4.2-2.8-6.4-4.2
	c0.5,2.1,1.3,3.9,1.9,5.7c4.9,14.2,9.8,28.4,14.6,42.7c2.7,8,5.4,16.1,8.1,24.1c0.3,0.8,0.3,1.7,1.3,2.3c0-0.9,0.1-1.5,0.1-2.2
	c0.4-29.5,0.7-59.1,1-88.7c0.4-34.6,0.7-69.1,1.2-103.7c0.1-7.1,0.2-14.3,1.1-21.4c0.4-2.9,1.3-5.4,3.6-7.4c1.6-1.3,3.1-2.7,4.6-4.1
	c0.8-0.7,1.6-1.5,2.3-2.4C327.2,129.7,327.6,128.8,326.8,127.6z M213.4,489c0.1-1.1,0.2-1.7,0.2-2.2c-0.2-2.6-0.4-5.3-0.7-7.9
	c-0.6-6-1.2-12-1.6-18c-0.4-5.8-0.7-11.6-1.1-17.4c-0.4-5.2-0.9-10.4-1.5-15.6c-0.6-5.9-1.2-11.9-2-17.8
	c-1.3-10.1-2.9-20.1-4.1-30.2c-1.1-8.7-2-17.4-2.8-26.1c-1-11-2-22-2.6-33c-0.4-7.6-0.3-15.3-0.4-23c0-0.8-0.1-1.5-0.1-2.4
	c-0.4,0.2-0.6,0.2-0.7,0.3c-0.6,0.5-1.1,1-1.6,1.5c-11.1,10.9-19,24-24.4,38.5c-8.7,23.4-10.7,47.5-6.4,72
	c4.9,27.6,16.1,52.1,37.2,71.3c3.3,3,6.8,5.8,10.3,8.7C211.7,488,212.3,488.3,213.4,489z M270.6,426.2c0-1.1,0-1.8,0-2.5
	c-0.5-7.1-0.9-14.1-1.4-21.2c-0.6-7.7-1.5-15.4-2-23.1c-0.8-12.4-1.4-24.9-2.1-37.3c-0.4-7.2-0.9-14.4-1.1-21.6
	c-0.4-14.1-0.7-28.3-1-42.5c0-0.7-0.1-1.4-0.1-2c-0.3-0.2-0.3-0.2-0.4-0.2c-10.4-2.4-20.7-2.1-31.1,0.3c-1.9,0.4-2.4,2.2-2.3,3.7
	c0.1,1.8,0.5,2.2,2.6,2.6s2.7,1.1,2.8,3.3c0.2,3,0.3,6,0.4,9.1c0.2,13.6-0.4,27.3-2.2,40.8c-1.7,12.9-3.7,25.7-5.7,38.5
	c-1.9,12.4-4.2,24.7-4.6,37.3c0,0.9-0.1,1.9-0.2,3c8.5,0,16.8,0.9,24.9,2.8C255.2,419.1,262.9,422.3,270.6,426.2z M262.1,251.8
	c0.2,0,0.3-0.1,0.5-0.1c0-0.8,0-1.6,0-2.4c-0.4-16.7-0.8-33.4-1.2-50.2c-0.2-9.7-0.4-19.4-0.6-29.2c-0.1-6.6-0.2-13.3-0.3-19.9
	c0-2.8-0.1-5.6-0.2-8.4c-0.1-3.2-0.5-6.4-1.9-9.3c-2.3-4.9-3.4-10-3.6-15.4c-0.1-2.7-0.7-5.3-1.9-7.7c-2.5-4.5-5.2-8.9-7.8-13.3
	c-0.3-0.5-0.8-0.8-1.2-1.2c-1.3,1.7-1.4,2.1-0.9,4.4c1.6,8.7,3.2,17.4,2.4,26.3c-0.1,1.6-0.3,3.2-0.4,4.9
	c-0.8,14.7-2.5,29.4-4.6,43.9c-2.3,15.8-4,31.7-3.9,47.8c0,1.2,0.2,2.1,1.1,2.9c8.5,8,16.2,16.7,23.6,25.7
	C261.5,251.1,261.8,251.4,262.1,251.8z M251.7,464.6c0.1-0.3,0.2-0.5,0.1-0.6c-0.2-1.2-0.4-2.5-0.6-3.7c-1.7-9.1-4.2-18.1-8.4-26.4
	c-1.3-2.6-3-5.1-5.1-7.1c-4.4-4.2-9.6-6.8-15.4-8.2c-0.2,0-0.4,0.1-0.8,0.1c-0.5,2.7-1.1,5.4-1.6,8.2c-1,6.5-0.6,13.1-0.2,19.6
	c0.6,11.2,1.2,22.4,1.8,33.5c0,0.6,0.1,1.1,0.2,2c0.8-0.5,1.4-0.9,2-1.2c2.6-1.6,5.3-3.2,7.9-4.8c1.3-0.8,2.7-1.2,4.2-1
	c2.1,0.2,3.8-0.6,5-2.2c1.9-2.5,4.3-4.2,6.9-5.8C249.1,466.2,250.5,465.3,251.7,464.6z M236.9,235.1c-0.2,0.1-0.4,0.2-0.6,0.4
	c-0.1,0.6-0.2,1.1-0.2,1.7c0.1,5.6,0.1,11.2,0.4,16.8c0.2,5.7-0.3,11.2-2.5,16.4c-0.1,0.3-0.1,0.6-0.2,1c5,0,9.9-0.2,14.7,0
	s9.6,0.9,14.3,1.4c0.5-1.5-0.1-2.6-0.8-3.7c-7.2-11.8-15.8-22.5-24.6-33.1C237.1,235.8,237,235.4,236.9,235.1z M224.3,495.3
	c9.9,5.3,20.4,8.3,31.9,8.9c-0.4-0.9-0.6-1.4-0.8-1.9c-0.3-1-0.6-2.1-0.6-3.2c-0.2-5.1-0.3-10.1-0.4-15.2c0-0.5-0.1-1-0.3-1.7
	C243.9,486.1,233.8,489.9,224.3,495.3z M311.9,484.1c4.9-2.8,19.1-19.4,20-23.6c-8.4,1.5-16.7,3.3-24.7,6.1
	C308.8,472.6,310.3,478.3,311.9,484.1z"/>
<g>
	<line class="st0" x1="57" y1="13.7" x2="57" y2="840.7"/>
	<rect x="54" y="13.7" class="st0" width="6" height="827"/>
</g>
</svg>
